# Blender 4.0.2
# www.blender.org
mtllib audio.mtl
o Mesh_AudioLog
v -0.460408 0.002701 1.095761
v 0.460408 0.002701 1.095761
v 0.600000 0.002701 1.095761
v 0.460408 0.002702 -1.127505
v -0.460407 0.002702 -1.127505
v -0.600000 0.002702 -1.127505
v 0.154494 0.082058 1.072082
v 0.154494 0.197683 1.072082
v 0.154494 0.235050 0.638250
v -0.451209 0.197683 1.072082
v -0.451209 0.082058 1.072082
v -0.451209 0.235050 0.638250
v -0.460408 0.304195 0.646038
v -0.460408 0.150717 1.095761
v -0.600000 0.150717 1.095761
v -0.600000 0.304195 0.646037
v -0.460408 0.304195 0.397369
v -0.600000 0.304195 0.397369
v 0.460407 0.304195 0.397369
v -0.460408 0.304195 -0.249406
v -0.600000 0.304195 -0.249407
v 0.460407 0.304195 0.646038
v -0.460407 0.304195 -1.033335
v -0.600000 0.304195 -1.033336
v 0.460408 0.304195 -1.033335
v 0.460408 0.304195 -0.249406
v 0.600000 0.304195 0.397370
v 0.600000 0.304195 -0.249406
v 0.600000 0.304195 0.646038
v 0.460407 0.150717 1.095761
v 0.600000 0.150717 1.095762
v 0.460408 0.304195 -0.249406
v 0.600000 0.304195 -1.033335
v 0.460408 0.304195 -1.033335
v 0.460408 0.259163 -1.127504
v 0.600000 0.259163 -1.127504
v 0.600000 0.304195 -1.033335
v -0.460407 0.259163 -1.127504
v -0.600000 0.304195 -1.033336
v -0.600000 0.259163 -1.127505
v -0.460408 0.094733 1.095761
v -0.600000 0.150717 1.095761
v -0.460408 0.150717 1.095761
v -0.600000 0.094733 1.095761
v -0.460408 0.002701 1.095761
v -0.600000 0.002701 1.095761
v 0.460408 0.002701 1.095761
v 0.460407 0.094733 1.095761
v 0.600000 0.002701 1.095761
v 0.600000 0.094733 1.095761
v 0.460407 0.150717 1.095761
v 0.600000 0.150717 1.095762
v -0.600000 0.094733 1.095761
v -0.600000 0.304195 0.646037
v -0.600000 0.150717 1.095761
v -0.600000 0.094733 0.646037
v -0.600000 0.002701 1.095761
v -0.600000 0.304195 0.397369
v -0.600000 0.002701 0.646037
v -0.600000 0.094733 0.397369
v -0.600000 0.304195 -0.249407
v -0.600000 0.002702 0.397369
v -0.600000 0.094733 -0.249407
v -0.600000 0.304195 -1.033336
v -0.600000 0.002702 -0.249407
v -0.600000 0.094733 -1.033336
v -0.600000 0.259163 -1.127505
v -0.600000 0.002702 -1.033336
v -0.600000 0.094733 -1.127505
v -0.600000 0.002702 -1.127505
v -0.460408 0.304195 0.397369
v -0.460408 0.154453 0.397369
v 0.460407 0.154453 0.397369
v 0.460407 0.304195 0.397369
v 0.600000 0.094733 -1.127504
v 0.460408 0.002702 -1.127505
v 0.600000 0.002702 -1.127505
v 0.460408 0.094733 -1.127505
v 0.600000 0.259163 -1.127504
v -0.460407 0.002702 -1.127505
v 0.460408 0.259163 -1.127504
v -0.460407 0.094733 -1.127505
v -0.600000 0.002702 -1.127505
v -0.460407 0.259163 -1.127504
v -0.600000 0.094733 -1.127505
v -0.600000 0.259163 -1.127505
v 0.460408 0.304195 -0.249406
v 0.460408 0.154453 -0.249406
v -0.460408 0.154453 -0.249406
v -0.460408 0.304195 -0.249406
v 0.460408 0.154453 -0.249406
v 0.460407 0.154453 0.397369
v -0.460408 0.154453 0.397369
v -0.460408 0.154453 -0.249406
v 0.600000 0.002702 -1.033336
v 0.600000 0.002702 -1.127505
v 0.460408 0.002702 -1.127505
v -0.600000 0.002702 -1.033336
v -0.600000 0.002702 -1.127505
v -0.600000 0.002702 -0.249407
v 0.600000 0.002702 -0.249407
v -0.600000 0.002702 0.397369
v 0.600000 0.002702 0.397369
v -0.600000 0.002701 0.646037
v 0.600000 0.002701 0.646037
v -0.600000 0.002701 1.095761
v 0.600000 0.002701 1.095761
v -0.460408 0.002701 1.095761
v 0.600000 0.304195 -1.033335
v 0.600000 0.259163 -1.127504
v 0.600000 0.094733 -1.127504
v 0.600000 0.094733 -1.033335
v 0.600000 0.002702 -1.127505
v 0.600000 0.304195 -0.249406
v 0.600000 0.002702 -1.033336
v 0.600000 0.094733 -0.249406
v 0.600000 0.304195 0.397370
v 0.600000 0.002702 -0.249407
v 0.600000 0.094733 0.397369
v 0.600000 0.304195 0.646038
v 0.600000 0.002702 0.397369
v 0.600000 0.094733 0.646038
v 0.600000 0.150717 1.095762
v 0.600000 0.002701 0.646037
v 0.600000 0.094733 1.095761
v 0.600000 0.002701 1.095761
v 0.460407 0.304195 0.397369
v 0.460407 0.154453 0.397369
v 0.460408 0.154453 -0.249406
v 0.460408 0.304195 -0.249406
v -0.460408 0.304195 -0.249406
v -0.460408 0.154453 -0.249406
v -0.460408 0.154453 0.397369
v -0.460408 0.304195 0.397369
v -0.460408 0.094733 1.095761
v -0.460408 0.094733 0.646038
v 0.460407 0.094733 0.646038
v 0.460407 0.094733 1.095761
v -0.460408 0.304195 0.646038
v 0.460407 0.304195 0.646038
v 0.460407 0.094733 0.646038
v -0.460408 0.094733 0.646038
v 0.460407 0.304195 0.646038
v 0.460407 0.150717 1.095761
v 0.460407 0.094733 1.095761
v 0.460407 0.094733 0.646038
v -0.460408 0.150717 1.095761
v -0.460408 0.304195 0.646038
v -0.460408 0.094733 0.646038
v -0.460408 0.094733 1.095761
v -0.148358 0.082058 1.072082
v -0.451209 0.082058 1.072082
v -0.451209 0.197683 1.072082
v -0.148358 0.197683 1.072082
v -0.148358 0.235050 0.638250
v -0.148358 0.197683 1.072082
v -0.451209 0.197683 1.072082
v -0.451209 0.235050 0.638250
v 0.154494 0.235050 0.638250
v 0.154494 0.197683 1.072082
v -0.148358 0.197683 1.072082
v -0.148358 0.235050 0.638250
v 0.154494 0.082058 1.072082
v -0.148358 0.082058 1.072082
v -0.148358 0.197683 1.072082
v 0.154494 0.197683 1.072082
vn -0.0000 -1.0000 -0.0000
vn 1.0000 -0.0000 -0.0000
vn -1.0000 -0.0000 -0.0000
vn -0.0000 0.9464 0.3230
vn -0.0000 0.9940 0.1090
vn -0.0000 0.9865 0.1637
vn -0.0000 1.0000 -0.0000
vn -0.0000 0.9752 -0.2212
vn 0.0001 0.9752 -0.2212
vn -0.0000 0.9022 -0.4314
vn -0.0000 -0.0000 1.0000
vn -0.0000 -0.0000 -1.0000
vn -0.0000 0.9963 0.0858
vt 0.114762 0.235372
vt 0.103391 0.235369
vt 0.028382 0.235348
vt 0.017073 0.089843
vt 0.028445 0.089846
vt 0.103454 0.089867
vt 0.005634 0.678020
vt 0.042867 0.687196
vt 0.046840 0.671077
vt 0.022703 0.527690
vt 0.022703 0.536745
vt 0.059334 0.536745
vt 0.059334 0.527690
vt 0.085059 0.536745
vt 0.085059 0.527690
vt 0.085059 0.616236
vt 0.142142 0.536745
vt 0.142142 0.527690
vt 0.059334 0.616236
vt 0.217179 0.536745
vt 0.217180 0.527690
vt 0.217696 0.617470
vt 0.142142 0.617701
vt 0.085059 0.629856
vt 0.142142 0.629856
vt 0.059334 0.629856
vt 0.022703 0.616236
vt 0.022703 0.629856
vt 0.142142 0.616236
vt 0.217180 0.629856
vt 0.217180 0.616236
vt 0.224791 0.617470
vt 0.224791 0.630741
vt 0.217696 0.630741
vt 0.224791 0.536904
vt 0.217696 0.529248
vt 0.224791 0.529248
vt 0.021189 0.616440
vt 0.021189 0.631530
vt 0.011449 0.616440
vt 0.011449 0.631530
vt 0.004659 0.616440
vt 0.004659 0.631530
vt 0.004659 0.537152
vt 0.011449 0.537152
vt 0.004659 0.528773
vt 0.011449 0.528773
vt 0.021189 0.537152
vt 0.021189 0.528773
vt 0.005943 0.650314
vt 0.041677 0.667048
vt 0.005943 0.643927
vt 0.041677 0.644702
vt 0.005943 0.634203
vt 0.076536 0.669373
vt 0.041677 0.634203
vt 0.076536 0.644702
vt 0.146885 0.668598
vt 0.076536 0.634203
vt 0.146885 0.644702
vt 0.232151 0.668598
vt 0.146885 0.634203
vt 0.232151 0.644702
vt 0.242394 0.663460
vt 0.232151 0.634203
vt 0.242394 0.644702
vt 0.242394 0.634203
vt 0.063681 0.515377
vt 0.115900 0.515377
vt 0.115900 0.525687
vt 0.063681 0.525687
vt 0.242223 0.630741
vt 0.242224 0.617470
vt 0.235968 0.630741
vt 0.235968 0.617470
vt 0.242224 0.536904
vt 0.235968 0.536904
vt 0.242224 0.529248
vt 0.235968 0.529248
vt 0.152578 0.515377
vt 0.204796 0.515377
vt 0.204796 0.525687
vt 0.152578 0.525687
vt 0.131518 0.542389
vt 0.133174 0.542389
vt 0.133174 0.543553
vt 0.131518 0.543553
vt 0.114825 0.089870
vt 0.114822 0.096033
vt 0.017071 0.096006
vt 0.017049 0.147310
vt 0.114800 0.147337
vt 0.017031 0.189638
vt 0.114782 0.189665
vt 0.017024 0.205912
vt 0.114775 0.205940
vt 0.017011 0.235345
vt 0.242394 0.644702
vt 0.242394 0.634203
vt 0.146885 0.668598
vt 0.232151 0.634203
vt 0.146885 0.644702
vt 0.076536 0.669373
vt 0.146885 0.634203
vt 0.076536 0.644702
vt 0.041677 0.667048
vt 0.076536 0.634203
vt 0.041677 0.644702
vt 0.005942 0.650314
vt 0.041677 0.634203
vt 0.005942 0.643927
vt 0.241475 0.515377
vt 0.241475 0.525687
vt 0.087160 0.601732
vt 0.087160 0.604756
vt 0.085919 0.604756
vt 0.085919 0.601732
vt 0.206536 0.687376
vt 0.206536 0.701103
vt 0.132175 0.701104
vt 0.132175 0.687377
vt 0.242060 0.687376
vt 0.242060 0.691812
vt 0.096650 0.691812
vt 0.096650 0.687377
vt 0.025125 0.588436
vt 0.013353 0.588436
vt 0.013352 0.609144
vt 0.025125 0.609144
vt 0.058506 0.609144
vt 0.058506 0.588436
vt 0.025337 0.586189
vt 0.025337 0.564934
vt 0.058000 0.564934
vt 0.058000 0.586189
vt 0.013818 0.586189
vt 0.013818 0.564934
s 0
usemtl Material.002
f 3/1/1 2/2/1 1/3/1
f 6/4/1 5/5/1 4/6/1
f 9/7/2 8/8/2 7/9/2
f 12/7/3 11/9/3 10/8/3
f 15/10/4 14/11/4 13/12/5
f 16/13/6 15/10/4 13/12/5
f 16/13/6 13/12/5 17/14/7
f 18/15/7 16/13/6 17/14/7
f 17/14/7 13/12/5 19/16/7
f 18/15/7 17/14/7 20/17/7
f 21/18/7 18/15/7 20/17/7
f 13/12/5 22/19/5 19/16/7
f 21/18/7 20/17/7 23/20/8
f 24/21/9 21/18/7 23/20/8
f 23/20/8 20/17/7 25/22/8
f 20/17/7 26/23/7 25/22/8
f 19/16/7 22/19/5 27/24/7
f 19/16/7 27/24/7 28/25/7
f 22/19/5 29/26/6 27/24/7
f 22/19/5 30/27/4 29/26/6
f 30/27/4 31/28/4 29/26/6
f 32/29/7 19/16/7 28/25/7
f 32/29/7 28/25/7 33/30/8
f 34/31/9 32/29/7 33/30/8
f 25/22/8 35/32/10 23/20/8
f 36/33/10 35/32/10 25/22/8
f 37/34/8 36/33/10 25/22/8
f 35/32/10 38/35/10 23/20/8
f 23/20/8 38/35/10 39/36/8
f 38/35/10 40/37/10 39/36/8
f 43/38/11 42/39/11 41/40/11
f 42/39/11 44/41/11 41/40/11
f 41/40/11 44/41/11 45/42/11
f 44/41/11 46/43/11 45/42/11
f 41/40/11 45/42/11 47/44/11
f 48/45/11 41/40/11 47/44/11
f 48/45/11 47/44/11 49/46/11
f 50/47/11 48/45/11 49/46/11
f 51/48/11 48/45/11 50/47/11
f 52/49/11 51/48/11 50/47/11
f 55/50/3 54/51/3 53/52/3
f 54/51/3 56/53/3 53/52/3
f 53/52/3 56/53/3 57/54/3
f 54/51/3 58/55/3 56/53/3
f 56/53/3 59/56/3 57/54/3
f 58/55/3 60/57/3 56/53/3
f 56/53/3 60/57/3 59/56/3
f 58/55/3 61/58/3 60/57/3
f 60/57/3 62/59/3 59/56/3
f 61/58/3 63/60/3 60/57/3
f 60/57/3 63/60/3 62/59/3
f 61/58/3 64/61/3 63/60/3
f 63/60/3 65/62/3 62/59/3
f 64/61/3 66/63/3 63/60/3
f 63/60/3 66/63/3 65/62/3
f 64/61/3 67/64/3 66/63/3
f 66/63/3 68/65/3 65/62/3
f 67/64/3 69/66/3 66/63/3
f 66/63/3 69/66/3 68/65/3
f 69/66/3 70/67/3 68/65/3
f 73/68/12 72/69/12 71/70/12
f 74/71/12 73/68/12 71/70/12
f 77/72/12 76/73/12 75/74/12
f 76/73/12 78/75/12 75/74/12
f 75/74/12 78/75/12 79/33/12
f 76/73/12 80/76/12 78/75/12
f 78/75/12 81/32/12 79/33/12
f 80/76/12 82/77/12 78/75/12
f 78/75/12 82/77/12 81/32/12
f 80/76/12 83/78/12 82/77/12
f 82/77/12 84/35/12 81/32/12
f 83/78/12 85/79/12 82/77/12
f 82/77/12 85/79/12 84/35/12
f 85/79/12 86/37/12 84/35/12
f 89/80/11 88/81/11 87/82/11
f 90/83/11 89/80/11 87/82/11
f 93/84/7 92/85/7 91/86/7
f 94/87/7 93/84/7 91/86/7
f 97/6/1 96/88/1 95/89/1
f 95/89/1 98/90/1 97/6/1
f 97/6/1 98/90/1 99/4/1
f 95/89/1 100/91/1 98/90/1
f 95/89/1 101/92/1 100/91/1
f 101/92/1 102/93/1 100/91/1
f 101/92/1 103/94/1 102/93/1
f 103/94/1 104/95/1 102/93/1
f 103/94/1 105/96/1 104/95/1
f 105/96/1 106/97/1 104/95/1
f 105/96/1 107/1/1 106/97/1
f 107/1/1 108/3/1 106/97/1
f 111/98/2 110/64/2 109/61/2
f 112/63/2 111/98/2 109/61/2
f 113/99/2 111/98/2 112/63/2
f 109/61/2 114/100/2 112/63/2
f 115/101/2 113/99/2 112/63/2
f 114/100/2 116/102/2 112/63/2
f 112/63/2 116/102/2 115/101/2
f 114/100/2 117/103/2 116/102/2
f 116/102/2 118/104/2 115/101/2
f 117/103/2 119/105/2 116/102/2
f 116/102/2 119/105/2 118/104/2
f 117/103/2 120/106/2 119/105/2
f 119/105/2 121/107/2 118/104/2
f 120/106/2 122/108/2 119/105/2
f 119/105/2 122/108/2 121/107/2
f 120/106/2 123/109/2 122/108/2
f 122/108/2 124/110/2 121/107/2
f 123/109/2 125/111/2 122/108/2
f 122/108/2 125/111/2 124/110/2
f 125/111/2 126/54/2 124/110/2
f 129/81/3 128/112/3 127/113/3
f 130/82/3 129/81/3 127/113/3
f 133/69/2 132/80/2 131/83/2
f 134/70/2 133/69/2 131/83/2
f 137/114/7 136/115/7 135/116/7
f 138/117/7 137/114/7 135/116/7
f 141/118/11 140/119/11 139/120/11
f 142/121/11 141/118/11 139/120/11
f 145/122/3 144/123/3 143/119/3
f 146/118/3 145/122/3 143/119/3
f 149/121/2 148/120/2 147/124/2
f 150/125/2 149/121/2 147/124/2
f 153/126/11 152/127/11 151/128/11
f 154/129/11 153/126/11 151/128/11
f 157/126/13 156/129/13 155/130/13
f 158/131/13 157/126/13 155/130/13
f 161/132/13 160/133/13 159/134/13
f 162/135/13 161/132/13 159/134/13
f 165/132/11 164/136/11 163/137/11
f 166/133/11 165/132/11 163/137/11
o Mesh_AudioLog_PlayButton
v 0.435523 0.196764 1.074699
v 0.435523 0.234131 0.640866
v 0.435523 0.081138 1.074699
v 0.151826 0.196764 1.074699
v 0.151826 0.081138 1.074699
v 0.151826 0.234131 0.640866
v 0.435523 0.081138 1.074699
v 0.151826 0.081138 1.074699
v 0.151826 0.196764 1.074699
v 0.435523 0.196764 1.074699
v 0.435523 0.234131 0.640866
v 0.435523 0.196764 1.074699
v 0.151826 0.196764 1.074699
v 0.151826 0.234131 0.640866
vn 1.0000 -0.0000 -0.0000
vn -1.0000 -0.0000 -0.0000
vn -0.0000 -0.0000 1.0000
vn -0.0000 0.9963 0.0858
vt 0.007228 0.679054
vt 0.047053 0.670456
vt 0.041967 0.685739
vt 0.025446 0.564813
vt 0.013680 0.564813
vt 0.013680 0.543240
vt 0.025446 0.543240
vt 0.058809 0.543240
vt 0.058809 0.564813
s 0
usemtl Material.004
f 169/138/14 168/139/14 167/140/14
f 172/138/15 171/139/15 170/140/15
f 175/141/16 174/142/16 173/143/16
f 176/144/16 175/141/16 173/143/16
f 179/141/17 178/144/17 177/145/17
f 180/146/17 179/141/17 177/145/17
o Mesh_AudioLog_Reel_01
v -0.503385 0.142027 0.249127
v -0.552014 0.142027 0.131014
v -0.552014 0.273872 0.131014
v -0.503385 0.273872 0.249127
v -0.408325 0.142027 0.334443
v -0.408325 0.273872 0.334443
v -0.285661 0.142027 0.370066
v -0.285661 0.273872 0.370066
v -0.159689 0.142027 0.348939
v -0.159689 0.273872 0.348939
v -0.552014 0.142027 0.131014
v -0.544580 0.273872 0.003499
v -0.552014 0.273872 0.131014
v -0.544580 0.142027 0.003499
v -0.482555 0.273872 -0.108163
v -0.482555 0.142027 -0.108163
v -0.482555 0.142027 -0.108163
v -0.378224 0.273872 -0.181855
v -0.482555 0.273872 -0.108163
v -0.378224 0.142027 -0.181855
v -0.252252 0.273872 -0.202982
v -0.252252 0.142027 -0.202982
v -0.129588 0.273872 -0.167359
v -0.129588 0.142027 -0.167359
v -0.129588 0.142027 -0.167359
v -0.034528 0.273872 -0.082043
v -0.129588 0.273872 -0.167359
v -0.034528 0.142027 -0.082043
v 0.014101 0.273872 0.036070
v 0.014101 0.142027 0.036070
v 0.014101 0.142027 0.036070
v 0.006666 0.273872 0.163585
v 0.014101 0.273872 0.036070
v 0.006666 0.142027 0.163585
v -0.055358 0.273872 0.275247
v -0.055358 0.142027 0.275247
v -0.159689 0.273872 0.348939
v -0.159689 0.142027 0.348939
v -0.544580 0.273872 0.003499
v -0.482555 0.273872 -0.108163
v -0.378224 0.273872 -0.181855
v -0.252252 0.273872 -0.202982
v -0.552014 0.273872 0.131014
v -0.129588 0.273872 -0.167359
v -0.503385 0.273872 0.249127
v -0.034528 0.273872 -0.082043
v -0.408325 0.273872 0.334443
v 0.014101 0.273872 0.036070
v -0.285661 0.273872 0.370066
v 0.006666 0.273872 0.163585
v -0.159689 0.273872 0.348939
v -0.055358 0.273872 0.275247
vn -0.9862 -0.0000 0.1654
vn -0.8168 -0.0000 0.5769
vn -0.4856 -0.0000 0.8742
vn -0.0582 -0.0000 0.9983
vn 0.3807 -0.0000 0.9247
vn -0.9603 -0.0000 -0.2789
vn -0.7442 -0.0000 -0.6679
vn -0.3807 -0.0000 -0.9247
vn 0.0582 -0.0000 -0.9983
vn 0.0582 0.0001 -0.9983
vn 0.4856 -0.0000 -0.8742
vn 0.8168 -0.0000 -0.5769
vn 0.9862 -0.0000 -0.1654
vn 0.9603 -0.0000 0.2789
vn 0.9603 -0.0001 0.2789
vn 0.7442 -0.0000 0.6679
vn -0.0000 1.0000 -0.0000
vt 0.145356 0.683991
vt 0.145356 0.672210
vt 0.155989 0.672210
vt 0.155989 0.683991
vt 0.166621 0.672210
vt 0.166621 0.683991
vt 0.177254 0.672210
vt 0.177254 0.683991
vt 0.187886 0.672210
vt 0.187886 0.683991
vt 0.134723 0.683991
vt 0.134723 0.672210
vt 0.124091 0.683991
vt 0.124091 0.672210
vt 0.113458 0.683991
vt 0.113458 0.672210
vt 0.102826 0.683991
vt 0.102826 0.672210
vt 0.092193 0.683991
vt 0.092193 0.672210
vt 0.241049 0.683991
vt 0.230416 0.683991
vt 0.241049 0.672210
vt 0.230416 0.672210
vt 0.219784 0.683991
vt 0.219784 0.672210
vt 0.209151 0.683991
vt 0.209151 0.672210
vt 0.198519 0.683991
vt 0.198519 0.672210
vt 0.043709 0.686507
vt 0.050904 0.677486
vt 0.061300 0.672480
vt 0.041142 0.697757
vt 0.072838 0.672480
vt 0.043709 0.709006
vt 0.083234 0.677486
vt 0.050904 0.718027
vt 0.090428 0.686507
vt 0.061300 0.723033
vt 0.092996 0.697756
vt 0.072838 0.723033
vt 0.090428 0.709006
vt 0.083234 0.718027
s 0
usemtl Material.003
f 183/147/18 182/148/18 181/149/19
f 184/150/19 183/147/18 181/149/19
f 184/150/19 181/149/19 185/151/20
f 186/152/20 184/150/19 185/151/20
f 186/152/20 185/151/20 187/153/21
f 188/154/21 186/152/20 187/153/21
f 188/154/21 187/153/21 189/155/22
f 190/156/22 188/154/21 189/155/22
f 193/147/18 192/157/23 191/148/18
f 192/157/23 194/158/23 191/148/18
f 192/157/23 195/159/24 194/158/23
f 195/159/24 196/160/24 194/158/23
f 199/159/24 198/161/25 197/160/24
f 198/161/25 200/162/25 197/160/24
f 198/161/25 201/163/26 200/162/25
f 201/163/26 202/164/27 200/162/25
f 201/163/26 203/165/28 202/164/26
f 203/165/28 204/166/28 202/164/26
f 207/167/28 206/168/29 205/169/28
f 206/168/29 208/170/29 205/169/28
f 206/168/29 209/171/30 208/170/29
f 209/171/30 210/172/30 208/170/29
f 213/171/30 212/173/31 211/172/30
f 212/173/31 214/174/31 211/172/30
f 212/173/32 215/175/33 214/174/31
f 215/175/33 216/176/33 214/174/31
f 215/175/33 217/156/22 216/176/33
f 217/156/22 218/155/22 216/176/33
f 221/177/34 220/178/34 219/179/34
f 219/179/34 222/180/34 221/177/34
f 219/179/34 223/181/34 222/180/34
f 223/181/34 224/182/34 222/180/34
f 223/181/34 225/183/34 224/182/34
f 225/183/34 226/184/34 224/182/34
f 225/183/34 227/185/34 226/184/34
f 227/185/34 228/186/34 226/184/34
f 227/185/34 229/187/34 228/186/34
f 229/187/34 230/188/34 228/186/34
f 229/187/34 231/189/34 230/188/34
f 231/189/34 232/190/34 230/188/34
o Mesh_AudioLog_Reel_02
v 0.248793 0.143326 0.373982
v 0.129451 0.275171 0.328453
v 0.248793 0.275171 0.373982
v 0.129451 0.143326 0.328453
v 0.041682 0.275171 0.235652
v 0.041682 0.143326 0.235653
v 0.002869 0.275171 0.113960
v 0.041682 0.143326 0.235653
v 0.002869 0.143326 0.113960
v 0.002869 0.275171 0.113960
v 0.020700 0.275171 -0.012521
v 0.020700 0.143326 -0.012521
v 0.091643 0.275171 -0.118739
v 0.091643 0.143326 -0.118739
v 0.091643 0.143326 -0.118739
v 0.201648 0.275171 -0.183658
v 0.091643 0.275171 -0.118739
v 0.201648 0.143326 -0.183658
v 0.328925 0.275171 -0.194419
v 0.328925 0.143326 -0.194419
v 0.448267 0.275171 -0.148890
v 0.448267 0.143326 -0.148890
v 0.448267 0.143326 -0.148890
v 0.536037 0.143326 -0.056090
v 0.536037 0.275171 -0.056090
v 0.448267 0.275171 -0.148890
v 0.536037 0.143326 -0.056090
v 0.574849 0.275171 0.065602
v 0.536037 0.275171 -0.056090
v 0.574849 0.143326 0.065602
v 0.557018 0.275171 0.192083
v 0.557018 0.143326 0.192083
v 0.557018 0.143326 0.192083
v 0.486075 0.275171 0.298302
v 0.557018 0.275171 0.192083
v 0.486075 0.143326 0.298302
v 0.376071 0.275171 0.363221
v 0.376071 0.143326 0.363221
v 0.248793 0.275171 0.373982
v 0.248793 0.143326 0.373982
v 0.376071 0.275171 0.363221
v 0.248793 0.275171 0.373982
v 0.129451 0.275171 0.328453
v 0.486075 0.275171 0.298302
v 0.041682 0.275171 0.235652
v 0.557018 0.275171 0.192083
v 0.002869 0.275171 0.113960
v 0.574849 0.275171 0.065602
v 0.020700 0.275171 -0.012521
v 0.536037 0.275171 -0.056090
v 0.091643 0.275171 -0.118739
v 0.201648 0.275171 -0.183658
v 0.448267 0.275171 -0.148890
v 0.328925 0.275171 -0.194419
vn -0.1396 -0.0000 0.9902
vn -0.5554 -0.0000 0.8316
vn -0.8612 -0.0000 0.5082
vn -0.8612 -0.0001 0.5082
vn -0.9964 -0.0000 0.0842
vn -0.9343 -0.0000 -0.3564
vn -0.6871 -0.0000 -0.7265
vn -0.3039 -0.0000 -0.9527
vn -0.3039 -0.0001 -0.9527
vn 0.1396 -0.0000 -0.9902
vn 0.1396 0.0001 -0.9902
vn 0.5554 -0.0000 -0.8316
vn 0.8612 -0.0000 -0.5082
vn 0.9964 -0.0000 -0.0842
vn 0.9343 -0.0000 0.3564
vn 0.6871 -0.0000 0.7265
vn 0.3039 -0.0000 0.9527
vn 0.3039 -0.0001 0.9527
vn -0.0000 1.0000 -0.0000
vt 0.177254 0.683991
vt 0.166621 0.683991
vt 0.177254 0.672210
vt 0.166621 0.672210
vt 0.155989 0.683991
vt 0.155989 0.672210
vt 0.145356 0.683991
vt 0.145356 0.672210
vt 0.134723 0.683991
vt 0.134723 0.672210
vt 0.124091 0.683991
vt 0.124091 0.672210
vt 0.113458 0.683991
vt 0.113458 0.672210
vt 0.102826 0.683991
vt 0.102826 0.672210
vt 0.092193 0.683991
vt 0.092193 0.672210
vt 0.230416 0.683991
vt 0.230416 0.672210
vt 0.241049 0.672210
vt 0.241049 0.683991
vt 0.219784 0.683991
vt 0.219784 0.672210
vt 0.209151 0.683991
vt 0.209151 0.672210
vt 0.198519 0.683991
vt 0.198519 0.672210
vt 0.187886 0.683991
vt 0.187886 0.672210
vt 0.090428 0.686507
vt 0.092996 0.697756
vt 0.090428 0.709006
vt 0.083234 0.718027
vt 0.083234 0.677486
vt 0.072838 0.723033
vt 0.072838 0.672480
vt 0.061300 0.723033
vt 0.061300 0.672480
vt 0.050904 0.718027
vt 0.050904 0.677486
vt 0.043709 0.686507
vt 0.043709 0.709006
vt 0.041142 0.697757
s 0
usemtl Material.001
f 235/191/35 234/192/36 233/193/35
f 234/192/36 236/194/36 233/193/35
f 234/192/36 237/195/37 236/194/36
f 237/195/37 238/196/37 236/194/36
f 237/195/38 239/197/39 238/196/37
f 242/197/39 241/198/39 240/196/37
f 242/197/39 243/199/40 241/198/39
f 243/199/40 244/200/40 241/198/39
f 243/199/40 245/201/41 244/200/40
f 245/201/41 246/202/41 244/200/40
f 249/201/41 248/203/42 247/202/41
f 248/203/42 250/204/43 247/202/41
f 248/203/42 251/205/44 250/204/42
f 251/205/44 252/206/45 250/204/42
f 251/205/44 253/207/46 252/206/44
f 253/207/46 254/208/46 252/206/44
f 257/209/47 256/210/47 255/211/46
f 258/212/46 257/209/47 255/211/46
f 261/209/47 260/213/48 259/210/47
f 260/213/48 262/214/48 259/210/47
f 260/213/48 263/215/49 262/214/48
f 263/215/49 264/216/49 262/214/48
f 267/215/49 266/217/50 265/216/49
f 266/217/50 268/218/50 265/216/49
f 266/217/50 269/219/51 268/218/50
f 269/219/51 270/220/51 268/218/50
f 269/219/52 271/191/35 270/220/51
f 271/191/35 272/193/35 270/220/51
f 275/221/53 274/222/53 273/223/53
f 273/223/53 276/224/53 275/221/53
f 276/224/53 277/225/53 275/221/53
f 276/224/53 278/226/53 277/225/53
f 278/226/53 279/227/53 277/225/53
f 278/226/53 280/228/53 279/227/53
f 280/228/53 281/229/53 279/227/53
f 280/228/53 282/230/53 281/229/53
f 282/230/53 283/231/53 281/229/53
f 282/230/53 284/232/53 283/231/53
f 282/230/53 285/233/53 284/232/53
f 285/233/53 286/234/53 284/232/53
